HIERARCHY
ROOT Hips
{
	OFFSET 0.000000 0.000000 0.000000
	CHANNELS 6 Xposition Yposition Zposition Zrotation Yrotation Xrotation 
	JOINT LHipJoint
	{
		OFFSET 0.000000 0.000000 0.000000
		CHANNELS 3 Zrotation Yrotation Xrotation
		JOINT LeftUpLeg
		{
			OFFSET 1.363060 -1.794630 0.839290
			CHANNELS 3 Zrotation Yrotation Xrotation
			JOINT LeftLeg
			{
				OFFSET 2.448110 -6.726130 0.000000
				CHANNELS 3 Zrotation Yrotation Xrotation
				JOINT LeftFoot
				{
					OFFSET 2.562200 -7.039590 0.000000
					CHANNELS 3 Zrotation Yrotation Xrotation
					JOINT LeftToeBase
					{
						OFFSET 0.157640 -0.433110 2.322550
						CHANNELS 3 Zrotation Yrotation Xrotation
						End Site
						{
							OFFSET 0.000000 0.000000 0.000000
						}
					}
				}
			}
		}
	}
	JOINT RHipJoint
	{
		OFFSET 0.000000 0.000000 0.000000
		CHANNELS 3 Zrotation Yrotation Xrotation
		JOINT RightUpLeg
		{
			OFFSET -1.305520 -1.794630 0.839290
			CHANNELS 3 Zrotation Yrotation Xrotation
			JOINT RightLeg
			{
				OFFSET -2.542530 -6.985550 0.000000
				CHANNELS 3 Zrotation Yrotation Xrotation
				JOINT RightFoot
				{
					OFFSET -2.568260 -7.056230 0.000000
					CHANNELS 3 Zrotation Yrotation Xrotation
					JOINT RightToeBase
					{
						OFFSET -0.164730 -0.452590 2.363150
						CHANNELS 3 Zrotation Yrotation Xrotation
						End Site
						{
							OFFSET 0.000000 0.000000 0.000000
						}
					}
				}
			}
		}
	}
	JOINT LowerBack
	{
		OFFSET 0.000000 0.000000 0.000000
		CHANNELS 3 Zrotation Yrotation Xrotation
		JOINT Spine
		{
			OFFSET 0.028270 2.035590 -0.193380
			CHANNELS 3 Zrotation Yrotation Xrotation
			JOINT Spine1
			{
				OFFSET 0.056720 2.048850 -0.042750
				CHANNELS 3 Zrotation Yrotation Xrotation
				JOINT Neck
				{
					OFFSET 0.000000 0.000000 0.000000
					CHANNELS 3 Zrotation Yrotation Xrotation
					JOINT Neck1
					{
						OFFSET -0.054170 1.746240 0.172020
						CHANNELS 3 Zrotation Yrotation Xrotation
						JOINT Head
						{
							OFFSET 0.104070 1.761360 -0.123970
							CHANNELS 3 Zrotation Yrotation Xrotation
							End Site
							{
								OFFSET 0.000000 0.000000 0.000000
							}
						}
					}
				}
				JOINT LeftShoulder
				{
					OFFSET 0.000000 0.000000 0.000000
					CHANNELS 3 Zrotation Yrotation Xrotation
					JOINT LeftArm
					{
						OFFSET 3.362410 1.200890 -0.311210
						CHANNELS 3 Zrotation Yrotation Xrotation
						JOINT LeftForeArm
						{
							OFFSET 4.983000 -0.000000 -0.000000
							CHANNELS 3 Zrotation Yrotation Xrotation
							JOINT LeftHand
							{
								OFFSET 3.483560 -0.000000 -0.000000
								CHANNELS 3 Zrotation Yrotation Xrotation
								JOINT LeftFingerBase
								{
									OFFSET 0.000000 0.000000 0.000000
									CHANNELS 3 Zrotation Yrotation Xrotation
									JOINT LeftHandIndex1
									{
										OFFSET 0.715260 -0.000000 -0.000000
										CHANNELS 3 Zrotation Yrotation Xrotation
										End Site
										{
											OFFSET 0.000000 0.000000 0.000000
										}
									}
								}
								JOINT LThumb
								{
									OFFSET 0.000000 0.000000 0.000000
									CHANNELS 3 Zrotation Yrotation Xrotation
									End Site
									{
										OFFSET 0.000000 0.000000 0.000000
									}
								}
							}
						}
					}
				}
				JOINT RightShoulder
				{
					OFFSET 0.000000 0.000000 0.000000
					CHANNELS 3 Zrotation Yrotation Xrotation
					JOINT RightArm
					{
						OFFSET -3.136600 1.374050 -0.404650
						CHANNELS 3 Zrotation Yrotation Xrotation
						JOINT RightForeArm
						{
							OFFSET -5.241900 -0.000000 -0.000000
							CHANNELS 3 Zrotation Yrotation Xrotation
							JOINT RightHand
							{
								OFFSET -3.444170 -0.000000 -0.000000
								CHANNELS 3 Zrotation Yrotation Xrotation
								JOINT RightFingerBase
								{
									OFFSET 0.000000 0.000000 0.000000
									CHANNELS 3 Zrotation Yrotation Xrotation
									JOINT RightHandIndex1
									{
										OFFSET -0.622530 -0.000000 -0.000000
										CHANNELS 3 Zrotation Yrotation Xrotation
										End Site
										{
											OFFSET 0.000000 0.000000 0.000000
										}
									}
								}
								JOINT RThumb
								{
									OFFSET 0.000000 0.000000 0.000000
									CHANNELS 3 Zrotation Yrotation Xrotation
									End Site
									{
										OFFSET 0.000000 0.000000 0.000000
									}
								}
							}
						}
					}
				}
			}
		}
	}
}
MOTION
Frames: 5
Frame Time: 0.008333
41.299923 17.790903 4.760149 -77.468383 -83.945398 87.711485 -1.033546 -1.147469 -0.983163 -8.937240 -5.952297 -7.907221 -0.344310 3.946793 9.752043 -1.197274 8.249156 0.524148 0.039700 1.285500 3.534600 0.300384 1.045403 -1.735004 27.566170 4.733490 -8.908695 -0.204841 -5.483953 13.695120 1.987944 -13.440844 -5.753677 -0.637900 -5.110100 14.222800 4.796265 -0.863307 -0.890098 1.367412 -1.106820 -4.913763 5.310507 -0.826320 0.769236 -4.836584 -1.639267 -13.679226 4.733582 -1.527440 2.889148 2.443500 -0.720500 5.015300 7.376833 3.143415 0.565160 -101.108382 0.397492 2.517481 7.482042 -25.916543 -2.378176 2.526143 1.978256 37.308357 14.858806 20.319817 4.234500 -7.125000 0.000000 0.000000 -13.206200 47.216800 -0.734700 -3.548032 -3.742903 -1.591797 86.308338 3.692560 13.634604 -9.780176 21.415678 -1.916480 -0.611913 0.402093 18.608397 -15.312455 -23.633949 6.029700 7.125000 0.000000 0.000000 15.403500 -53.932600 -3.445400 
41.298130 17.789409 4.757658 -78.437684 -83.946720 88.734019 -1.026992 -1.144183 -0.987696 -8.902448 -5.868974 -7.969681 -0.344017 3.949708 9.754012 -1.198796 8.253214 0.488721 0.036900 1.240200 3.410100 0.302611 1.056358 -1.745598 27.582177 4.773213 -9.011732 -0.214979 -5.526813 13.818372 1.965138 -13.324258 -5.763594 -0.637800 -5.109700 14.221600 4.795143 -0.831164 -0.969070 1.363669 -1.075681 -4.866529 5.315658 -0.806322 0.949081 -4.800149 -1.649605 -14.004732 4.629460 -1.541727 2.997049 2.400700 -0.730000 5.112200 7.391310 3.167514 0.554277 -101.091676 0.127293 2.217845 7.343219 -25.726887 -2.346985 2.537867 1.951471 37.545199 14.872407 20.239610 4.218400 -7.125000 0.000000 0.000000 -13.183500 47.149000 -0.711000 -3.558527 -3.762745 -1.588524 86.315400 3.899735 13.456647 -9.731706 21.342382 -1.908506 -0.601568 0.413692 18.672685 -15.555941 -22.963696 5.978400 7.125000 0.000000 0.000000 14.840200 -53.335200 -3.096100 
41.295141 17.788711 4.756263 -78.550629 -83.991177 88.848645 -1.027804 -1.141419 -0.980752 -8.950060 -5.872555 -7.967176 -0.343247 3.954857 9.770276 -1.197309 8.241843 0.454287 0.039800 1.287000 3.538800 0.306091 1.057030 -1.738349 27.527500 4.707617 -9.103378 -0.225568 -5.568621 13.942186 1.941489 -13.199742 -5.802376 -0.621700 -5.045700 14.039000 4.736189 -0.840377 -0.845858 1.360901 -1.073934 -4.914573 5.347592 -0.806197 0.761143 -4.829841 -1.651063 -13.983048 4.610394 -1.539883 3.077098 2.400000 -0.732500 5.144800 7.390273 3.138832 0.553817 -101.098773 0.282158 1.920351 7.306781 -25.655324 -2.338927 2.543944 1.951399 37.755376 14.817310 20.319965 4.220800 -7.125000 0.000000 0.000000 -13.252500 47.215700 -0.737000 -3.549883 -3.746887 -1.605256 86.269193 3.745219 13.401770 -9.790318 21.387681 -1.862083 -0.670361 0.307818 18.610699 -12.289102 -27.950703 5.504400 7.125000 0.000000 0.000000 20.916700 -57.336500 -6.511600 
41.293049 17.787316 4.754370 -79.250515 -84.013509 89.627753 -1.016755 -1.149080 -1.008472 -8.960120 -5.800298 -8.029380 -0.343831 3.960714 9.774619 -1.191134 8.213564 0.421131 0.039200 1.278000 3.514100 0.306583 1.072743 -1.769207 27.505480 4.696132 -9.243094 -0.237324 -5.622442 14.089322 1.914602 -13.064159 -5.827595 -0.621600 -5.045300 14.037800 4.797698 -0.832795 -1.405447 1.322892 -1.109711 -4.731295 5.183877 -0.819157 1.513284 -4.785191 -1.643169 -14.083218 4.648881 -1.530482 2.844441 2.406800 -0.718600 5.047800 7.398575 3.237566 0.553803 -100.975771 -0.285439 1.611487 7.138654 -25.421251 -2.303233 2.568221 1.912131 38.027562 14.918733 20.295125 4.240800 -7.125000 0.000000 0.000000 -13.182100 47.214500 -0.732600 -3.584390 -3.790917 -1.569697 86.443600 4.276394 13.258577 -9.710327 21.292255 -1.838524 -0.671458 0.315869 18.767162 -12.611997 -27.709319 5.616700 7.125000 0.000000 0.000000 20.435100 -57.185400 -6.277500 
41.291155 17.784826 4.752178 -80.257453 -84.040330 90.714646 -1.005307 -1.152294 -1.032457 -8.966789 -5.784057 -8.087906 -0.343176 3.972119 9.791608 -1.204844 8.278613 0.373628 0.038000 1.258700 3.461000 0.309956 1.089847 -1.796422 27.478631 4.756500 -9.379340 -0.250124 -5.679238 14.245997 1.895705 -12.968709 -5.841380 -0.626100 -5.063400 14.089400 4.869397 -0.822818 -1.873337 1.280728 -1.136187 -4.577188 5.009556 -0.826142 2.146908 -4.717278 -1.602901 -14.179750 4.653174 -1.483180 2.627888 2.401200 -0.688700 4.958700 7.411886 3.327464 0.546393 -100.880417 -0.846117 0.994009 6.920036 -25.086536 -2.252107 2.584242 1.839845 38.592462 14.990167 20.073137 4.210800 -7.125000 0.000000 0.000000 -13.083200 47.039900 -0.669600 -3.619330 -3.835975 -1.532496 86.621829 4.742216 13.095244 -9.604267 21.182778 -1.858778 -0.616277 0.406306 18.874981 -15.438395 -23.551396 6.061500 7.125000 0.000000 0.000000 15.244300 -53.874800 -3.386700 
